<?xml version="1.0" encoding="UTF-8"?>
<svg id="Capa_1" data-name="Capa 1" xmlns="http://www.w3.org/2000/svg" viewBox="0 0 466.69 97.5">
  <defs>
    <style>
      .cls-1 {
        fill: #d5101d;
      }

      .cls-2 {
        fill: #d6151e;
      }

      .cls-3 {
        fill: #dcdcdc;
      }
    </style>
  </defs>
  <g>
    <polygon class="cls-3" points="189.03 14.19 179.83 14.19 170.86 26.1 161.95 14.19 152.47 14.19 166.07 32.11 151.85 50.62 161.27 50.62 170.71 38.03 180.03 50.62 189.65 50.62 175.4 31.99 189.03 14.19"/>
    <path class="cls-3" d="M216.8,16.1c-2.77-1.55-5.94-2.32-9.48-2.32s-6.88.8-9.72,2.39c-2.84,1.59-5.07,3.79-6.69,6.58-1.61,2.8-2.42,6.01-2.42,9.65s.83,6.8,2.49,9.62,4,5.04,7.03,6.65c3.02,1.61,6.56,2.42,10.61,2.42,3.18,0,6.01-.51,8.49-1.54,2.48-1.02,4.54-2.49,6.17-4.4l-4.57-5.25c-1.27,1.36-2.73,2.37-4.37,3-1.64.64-3.48.96-5.53.96-2.37,0-4.46-.45-6.28-1.36s-3.23-2.21-4.23-3.89c-.63-1.06-1.04-2.23-1.27-3.48h28.56c.04-.41.08-.84.1-1.3.02-.45.03-.86.03-1.23,0-3.82-.8-7.14-2.39-9.96-1.59-2.82-3.78-5-6.55-6.55ZM198.14,25.75c.89-1.61,2.11-2.88,3.68-3.79,1.57-.91,3.4-1.36,5.49-1.36s3.85.46,5.42,1.36c1.57.91,2.81,2.16,3.72,3.75.64,1.12,1.03,2.38,1.2,3.75h-20.7c.19-1.37.57-2.61,1.18-3.72Z"/>
    <path class="cls-3" d="M238.63,19.53v-5.34h-8.12v36.43h8.53v-17.67c0-3.73.95-6.54,2.86-8.42s4.48-2.83,7.71-2.83c.32,0,.64.01.95.03.32.02.66.08,1.02.17v-8.12c-3.5,0-6.42.64-8.77,1.91-1.75.95-3.14,2.23-4.2,3.84Z"/>
    <path class="cls-3" d="M280.38,16.1c-2.77-1.55-5.94-2.32-9.48-2.32s-6.88.8-9.72,2.39c-2.84,1.59-5.07,3.79-6.69,6.58-1.61,2.8-2.42,6.01-2.42,9.65s.83,6.8,2.49,9.62,4,5.04,7.03,6.65c3.02,1.61,6.56,2.42,10.61,2.42,3.18,0,6.01-.51,8.49-1.54,2.48-1.02,4.54-2.49,6.17-4.4l-4.57-5.25c-1.27,1.36-2.73,2.37-4.37,3-1.64.64-3.48.96-5.53.96-2.37,0-4.46-.45-6.28-1.36s-3.23-2.21-4.23-3.89c-.63-1.06-1.04-2.23-1.27-3.48h28.56c.04-.41.08-.84.1-1.3.02-.45.03-.86.03-1.23,0-3.82-.8-7.14-2.39-9.96-1.59-2.82-3.78-5-6.55-6.55ZM261.72,25.75c.89-1.61,2.11-2.88,3.68-3.79,1.57-.91,3.4-1.36,5.49-1.36s3.85.46,5.42,1.36c1.57.91,2.81,2.16,3.72,3.75.64,1.12,1.03,2.38,1.2,3.75h-20.7c.19-1.37.57-2.61,1.18-3.72Z"/>
    <path class="cls-3" d="M323.8,16.1c-2.75-1.55-5.92-2.32-9.52-2.32-2.96,0-5.65.67-8.08,2.01-1.35.75-2.54,1.73-3.58,2.91V0h-8.53v50.62h8.12v-4.88c1.09,1.35,2.35,2.47,3.82,3.31,2.41,1.36,5.16,2.05,8.25,2.05,3.59,0,6.76-.78,9.52-2.35,2.75-1.57,4.93-3.74,6.55-6.52,1.61-2.77,2.42-6.05,2.42-9.82s-.81-7.05-2.42-9.82c-1.61-2.77-3.8-4.93-6.55-6.48ZM322.68,38.48c-.95,1.73-2.24,3.05-3.85,3.96-1.61.91-3.45,1.36-5.49,1.36s-3.89-.45-5.53-1.36c-1.64-.91-2.93-2.23-3.89-3.96-.96-1.73-1.43-3.75-1.43-6.07s.48-4.4,1.43-6.11c.95-1.7,2.25-3.01,3.89-3.92,1.64-.91,3.48-1.36,5.53-1.36s3.88.45,5.49,1.36c1.61.91,2.9,2.22,3.85,3.92.96,1.71,1.43,3.74,1.43,6.11s-.48,4.34-1.43,6.07Z"/>
    <path class="cls-3" d="M345.6,19.53v-5.34h-8.12v36.43h8.53v-17.67c0-3.73.95-6.54,2.86-8.42,1.91-1.89,4.48-2.83,7.71-2.83.32,0,.64.01.95.03.32.02.66.08,1.02.17v-8.12c-3.5,0-6.42.64-8.77,1.91-1.75.95-3.14,2.23-4.2,3.84Z"/>
    <path class="cls-3" d="M389.46,32.61c0,2.41-.42,4.43-1.26,6.07-.84,1.64-2,2.86-3.48,3.68-1.48.82-3.22,1.23-5.22,1.23-2.73,0-4.83-.81-6.31-2.42-1.48-1.61-2.22-4.06-2.22-7.33V14.19h-8.53v20.81c0,3.64.66,6.65,1.98,9.04,1.32,2.39,3.16,4.16,5.53,5.32,2.36,1.16,5.09,1.74,8.19,1.74,2.82,0,5.41-.63,7.78-1.88,1.58-.84,2.88-1.94,3.96-3.28v4.68h8.12V14.19h-8.53v18.42Z"/>
    <path class="cls-3" d="M464.78,20.7c-1.27-2.34-3.04-4.08-5.29-5.22-2.25-1.14-4.83-1.7-7.74-1.7-3.59,0-6.75.82-9.48,2.46-1.69,1.01-3.05,2.27-4.15,3.7-.88-1.47-1.99-2.7-3.39-3.63-2.52-1.68-5.49-2.52-8.9-2.52-3,0-5.67.61-8.02,1.84-1.56.82-2.86,1.92-3.92,3.24v-4.68h-8.12v36.43h8.53v-18.49c0-2.46.4-4.48,1.19-6.07.8-1.59,1.91-2.8,3.34-3.62s3.08-1.23,4.95-1.23c2.64,0,4.66.8,6.07,2.39s2.11,4,2.11,7.23v19.78h8.53v-18.49c0-2.46.4-4.48,1.19-6.07.8-1.59,1.91-2.8,3.34-3.62s3.08-1.23,4.95-1.23c2.64,0,4.66.8,6.07,2.39,1.41,1.59,2.11,4,2.11,7.23v19.78h8.53v-20.88c0-3.68-.64-6.7-1.91-9.04Z"/>
  </g>
  <g>
    <path class="cls-1" d="M163.51,77.3c-.61-.79-1.36-1.4-2.24-1.83-1.16-.57-2.45-.86-3.86-.86-1.6,0-3.03.33-4.28,1-1.26.66-2.25,1.59-2.99,2.79-.74,1.19-1.11,2.59-1.11,4.19s.37,2.97,1.11,4.17c.74,1.2,1.73,2.14,2.99,2.82,1.26.67,2.68,1.01,4.28,1.01,1.41,0,2.7-.3,3.86-.89.81-.41,1.5-.98,2.09-1.68v1.32c0,1.87-.46,3.26-1.37,4.17s-2.35,1.37-4.3,1.37c-1.23,0-2.4-.19-3.52-.57-1.12-.39-2.07-.91-2.83-1.57l-1.43,2.3c.89.79,2.05,1.4,3.47,1.82s2.89.64,4.41.64c2.8,0,4.93-.69,6.38-2.06,1.45-1.37,2.18-3.51,2.18-6.42v-14.26h-2.83v2.53ZM162.69,85.39c-.49.81-1.16,1.44-2.01,1.9-.85.46-1.83.69-2.93.69s-2.08-.23-2.94-.69c-.86-.46-1.54-1.09-2.02-1.9s-.73-1.74-.73-2.8.24-1.99.73-2.8,1.16-1.44,2.02-1.88,1.84-.67,2.94-.67,2.08.22,2.93.67c.85.45,1.52,1.07,2.01,1.88.49.81.73,1.74.73,2.8s-.24,1.99-.73,2.8Z"/>
    <rect class="cls-1" x="170.8" y="68.16" width="2.99" height="23.11"/>
    <path class="cls-1" d="M189.72,75.68c-1.3-.72-2.77-1.07-4.41-1.07s-3.14.36-4.42,1.07c-1.29.72-2.31,1.71-3.05,2.97s-1.12,2.72-1.12,4.36.37,3.07,1.12,4.34c.75,1.28,1.77,2.28,3.05,3.01,1.29.73,2.76,1.09,4.42,1.09s3.11-.36,4.41-1.09c1.3-.73,2.31-1.72,3.05-2.99.74-1.27,1.11-2.72,1.11-4.36s-.37-3.12-1.11-4.38c-.74-1.26-1.75-2.24-3.05-2.96ZM190.14,86.09c-.48.88-1.14,1.56-1.98,2.04-.84.48-1.79.72-2.85.72s-2-.24-2.83-.72c-.83-.48-1.49-1.16-1.99-2.04-.5-.88-.75-1.91-.75-3.07s.25-2.21.75-3.07c.5-.86,1.16-1.53,1.99-2.01.83-.48,1.78-.72,2.83-.72s2.01.24,2.85.72c.84.48,1.5,1.15,1.98,2.01.48.86.72,1.88.72,3.07s-.24,2.19-.72,3.07Z"/>
    <path class="cls-1" d="M209.82,75.67c-1.25-.71-2.68-1.06-4.3-1.06-1.37,0-2.62.31-3.75.93-.78.43-1.45,1.02-2.01,1.75v-9.13h-2.99v23.11h2.86v-2.62c.57.78,1.26,1.4,2.07,1.85,1.13.63,2.4.95,3.81.95,1.62,0,3.05-.35,4.3-1.06s2.23-1.69,2.96-2.96c.73-1.27,1.09-2.74,1.09-4.42s-.36-3.15-1.09-4.41c-.73-1.26-1.71-2.24-2.96-2.94ZM210.12,86.09c-.49.88-1.15,1.56-1.99,2.04s-1.79.72-2.85.72-1.98-.24-2.82-.72c-.84-.48-1.5-1.16-1.99-2.04-.49-.88-.73-1.91-.73-3.07s.24-2.21.73-3.07c.49-.86,1.15-1.53,1.99-2.01.84-.48,1.78-.72,2.82-.72s2.01.24,2.85.72c.84.48,1.5,1.15,1.99,2.01.49.86.73,1.88.73,3.07s-.24,2.19-.73,3.07Z"/>
    <path class="cls-1" d="M222.62,74.61c-1.31,0-2.56.18-3.75.55-1.19.36-2.22.89-3.07,1.57l1.25,2.24c.64-.54,1.43-.97,2.37-1.29.93-.32,1.89-.48,2.87-.48,1.47,0,2.58.35,3.32,1.04.74.7,1.11,1.68,1.11,2.94v.59h-4.73c-1.64,0-2.94.22-3.91.65-.97.44-1.66,1.02-2.09,1.74s-.64,1.54-.64,2.43.25,1.77.75,2.51c.5.74,1.21,1.31,2.13,1.73s2,.62,3.22.62c1.51,0,2.77-.29,3.77-.86.7-.4,1.25-.91,1.65-1.52v2.18h2.83v-9.97c0-2.26-.61-3.95-1.84-5.05s-2.97-1.65-5.23-1.65ZM224.88,88.41c-.84.5-1.82.75-2.94.75s-2.03-.24-2.68-.73c-.64-.49-.97-1.14-.97-1.95,0-.71.26-1.31.78-1.81.52-.5,1.53-.75,3.02-.75h4.61v2.3c-.37.96-.98,1.68-1.82,2.18Z"/>
    <rect class="cls-1" x="233.99" y="68.16" width="2.99" height="23.11"/>
    <path class="cls-1" d="M258.36,83.02c-.61-.31-1.29-.55-2.04-.73s-1.49-.32-2.24-.44-1.43-.25-2.04-.42c-.61-.17-1.11-.4-1.5-.7s-.57-.73-.57-1.29c0-.66.32-1.21.96-1.63s1.62-.64,2.93-.64c.81,0,1.62.09,2.43.28s1.59.53,2.34,1.03l1.28-2.37c-.71-.48-1.61-.85-2.72-1.11-1.11-.26-2.21-.39-3.29-.39-1.41,0-2.63.2-3.66.61-1.03.4-1.82.98-2.38,1.73s-.84,1.62-.84,2.62.19,1.72.56,2.29c.37.57.87,1.02,1.49,1.34s1.31.57,2.06.75,1.49.32,2.24.44c.75.11,1.43.24,2.04.39s1.11.36,1.48.65c.37.29.56.7.56,1.22,0,.71-.31,1.26-.92,1.65-.61.39-1.61.59-3.01.59-1.08,0-2.14-.17-3.18-.5-1.04-.33-1.91-.74-2.62-1.22l-1.25,2.37c.71.54,1.68,1,2.91,1.37,1.23.37,2.54.56,3.91.56,1.47,0,2.74-.2,3.8-.61,1.06-.41,1.88-.97,2.46-1.7.58-.73.87-1.59.87-2.59,0-.93-.19-1.68-.58-2.24s-.88-1-1.49-1.31Z"/>
    <path class="cls-1" d="M274.4,75.68c-1.3-.72-2.77-1.07-4.41-1.07s-3.14.36-4.42,1.07c-1.29.72-2.31,1.71-3.05,2.97s-1.12,2.72-1.12,4.36.37,3.07,1.12,4.34c.75,1.28,1.77,2.28,3.05,3.01,1.29.73,2.76,1.09,4.42,1.09s3.11-.36,4.41-1.09c1.3-.73,2.31-1.72,3.05-2.99.74-1.27,1.11-2.72,1.11-4.36s-.37-3.12-1.11-4.38c-.74-1.26-1.75-2.24-3.05-2.96ZM274.82,86.09c-.48.88-1.14,1.56-1.98,2.04-.84.48-1.79.72-2.85.72s-2-.24-2.83-.72c-.83-.48-1.49-1.16-1.99-2.04-.5-.88-.75-1.91-.75-3.07s.25-2.21.75-3.07c.5-.86,1.16-1.53,1.99-2.01.83-.48,1.78-.72,2.83-.72s2.01.24,2.85.72c.84.48,1.5,1.15,1.98,2.01.48.86.72,1.88.72,3.07s-.24,2.19-.72,3.07Z"/>
    <rect class="cls-1" x="281.45" y="68.16" width="2.99" height="23.11"/>
    <path class="cls-1" d="M301.29,83.3c0,1.16-.21,2.15-.62,2.97-.42.82-1.01,1.44-1.77,1.87-.77.43-1.67.64-2.71.64-1.41,0-2.51-.41-3.29-1.22-.78-.81-1.17-2.02-1.17-3.64v-9.16h-2.99v9.5c0,1.62.3,2.96.89,4.03.59,1.07,1.42,1.86,2.49,2.38,1.07.52,2.31.78,3.72.78s2.56-.3,3.64-.9c.8-.45,1.46-1.04,1.96-1.76v2.48h2.83v-16.51h-2.99v8.53Z"/>
    <path class="cls-1" d="M314.75,88.93c-.83,0-1.47-.24-1.91-.72-.45-.48-.67-1.16-.67-2.06v-8.94h4.73v-2.46h-4.73v-3.61h-2.99v3.61h-2.8v2.46h2.8v9.06c0,1.66.46,2.94,1.37,3.83.91.89,2.2,1.34,3.86,1.34.69,0,1.34-.09,1.98-.28.63-.19,1.18-.48,1.64-.87l-.93-2.15c-.62.52-1.4.78-2.34.78Z"/>
    <path class="cls-1" d="M321.88,67.69c-.58,0-1.06.19-1.45.56-.38.37-.58.84-.58,1.4s.19,1,.58,1.37.87.56,1.45.56,1.09-.19,1.46-.57.56-.86.56-1.42-.19-.99-.58-1.35-.87-.55-1.45-.55Z"/>
    <rect class="cls-1" x="320.38" y="74.76" width="2.99" height="16.51"/>
    <path class="cls-1" d="M339.3,75.68c-1.3-.72-2.77-1.07-4.41-1.07s-3.14.36-4.42,1.07c-1.29.72-2.31,1.71-3.05,2.97s-1.12,2.72-1.12,4.36.37,3.07,1.12,4.34c.75,1.28,1.77,2.28,3.05,3.01,1.29.73,2.76,1.09,4.42,1.09s3.11-.36,4.41-1.09c1.3-.73,2.31-1.72,3.05-2.99.74-1.27,1.11-2.72,1.11-4.36s-.37-3.12-1.11-4.38c-.74-1.26-1.75-2.24-3.05-2.96ZM339.72,86.09c-.48.88-1.14,1.56-1.98,2.04-.84.48-1.79.72-2.85.72s-2-.24-2.83-.72c-.83-.48-1.49-1.16-1.99-2.04-.5-.88-.75-1.91-.75-3.07s.25-2.21.75-3.07c.5-.86,1.16-1.53,1.99-2.01.83-.48,1.78-.72,2.83-.72s2.01.24,2.85.72c.84.48,1.5,1.15,1.98,2.01.48.86.72,1.88.72,3.07s-.24,2.19-.72,3.07Z"/>
    <path class="cls-1" d="M358.74,75.39c-1.03-.52-2.22-.78-3.57-.78-1.49,0-2.8.3-3.92.9-.84.45-1.51,1.03-2.02,1.75v-2.5h-2.86v16.51h2.99v-8.5c0-1.2.21-2.21.64-3.02.43-.81,1.03-1.42,1.82-1.84s1.71-.62,2.77-.62c1.41,0,2.51.4,3.29,1.21.78.81,1.17,2.01,1.17,3.61v9.16h2.99v-9.5c0-1.62-.29-2.96-.87-4.02s-1.39-1.85-2.41-2.37Z"/>
    <path class="cls-1" d="M377.61,84.33c-.38-.56-.88-1-1.49-1.31s-1.29-.55-2.04-.73-1.49-.32-2.24-.44-1.43-.25-2.04-.42c-.61-.17-1.11-.4-1.5-.7s-.57-.73-.57-1.29c0-.66.32-1.21.96-1.63s1.62-.64,2.93-.64c.81,0,1.62.09,2.43.28s1.59.53,2.34,1.03l1.28-2.37c-.71-.48-1.61-.85-2.72-1.11-1.11-.26-2.21-.39-3.29-.39-1.41,0-2.63.2-3.66.61-1.03.4-1.82.98-2.38,1.73s-.84,1.62-.84,2.62.19,1.72.56,2.29c.37.57.87,1.02,1.49,1.34s1.31.57,2.06.75,1.49.32,2.24.44c.75.11,1.43.24,2.04.39s1.11.36,1.48.65c.37.29.56.7.56,1.22,0,.71-.31,1.26-.92,1.65-.61.39-1.61.59-3.01.59-1.08,0-2.14-.17-3.18-.5-1.04-.33-1.91-.74-2.62-1.22l-1.25,2.37c.71.54,1.68,1,2.91,1.37,1.23.37,2.54.56,3.91.56,1.47,0,2.74-.2,3.8-.61,1.06-.41,1.88-.97,2.46-1.7.58-.73.87-1.59.87-2.59,0-.93-.19-1.68-.58-2.24Z"/>
  </g>
  <g>
    <path class="cls-2" d="M46.61,4.75h24.42l45.5,45.5-46.24,46.24h-23.68l45.87-45.63S46.61,4.01,46.61,4.75Z"/>
    <path class="cls-2" d="M0,4.75h24.42l45.5,45.5-46.24,46.24H0l45.87-45.63S0,4.01,0,4.75Z"/>
  </g>
</svg>