<?xml version="1.0" encoding="UTF-8"?>
<svg id="Capa_1" data-name="Capa 1" xmlns="http://www.w3.org/2000/svg" viewBox="0 0 356.99 289">
  <defs>
    <style>
      .cls-1 {
        fill: #d5101d;
      }

      .cls-2 {
        fill: #d6151e;
      }

      .cls-3 {
        fill: #dcdcdc;
      }
    </style>
  </defs>
  <g>
    <polygon class="cls-3" points="42.16 194.53 31.72 194.53 21.55 208.04 11.45 194.53 .7 194.53 16.12 214.85 0 235.84 10.67 235.84 21.38 221.56 31.95 235.84 42.86 235.84 26.7 214.71 42.16 194.53"/>
    <path class="cls-3" d="M73.64,196.7c-3.15-1.75-6.73-2.63-10.75-2.63s-7.8.9-11.02,2.71c-3.22,1.81-5.75,4.29-7.58,7.47-1.83,3.17-2.75,6.82-2.75,10.95s.94,7.71,2.82,10.91,4.54,5.71,7.97,7.54c3.43,1.83,7.44,2.75,12.03,2.75,3.61,0,6.82-.58,9.63-1.74,2.81-1.16,5.14-2.82,7-4.99l-5.18-5.96c-1.44,1.55-3.09,2.68-4.95,3.4-1.86.72-3.94,1.08-6.27,1.08-2.68,0-5.05-.52-7.12-1.55s-3.66-2.5-4.8-4.41c-.71-1.2-1.18-2.52-1.44-3.95h32.38c.05-.46.09-.95.11-1.47.03-.51.04-.98.04-1.39,0-4.33-.9-8.1-2.71-11.3-1.8-3.2-4.28-5.67-7.43-7.43ZM52.49,207.64c1.01-1.83,2.4-3.26,4.18-4.29,1.78-1.03,3.85-1.55,6.23-1.55s4.37.52,6.15,1.55c1.78,1.03,3.18,2.45,4.22,4.25.73,1.28,1.17,2.7,1.36,4.25h-23.47c.22-1.55.65-2.96,1.34-4.22Z"/>
    <path class="cls-3" d="M98.39,200.58v-6.05h-9.2v41.31h9.67v-20.03c0-4.23,1.08-7.41,3.25-9.55s5.08-3.21,8.74-3.21c.36,0,.72.01,1.08.04.36.03.75.09,1.16.19v-9.2c-3.97,0-7.28.72-9.94,2.17-1.98,1.08-3.57,2.53-4.76,4.35Z"/>
    <path class="cls-3" d="M145.74,196.7c-3.15-1.75-6.73-2.63-10.75-2.63s-7.8.9-11.02,2.71c-3.22,1.81-5.75,4.29-7.58,7.47-1.83,3.17-2.75,6.82-2.75,10.95s.94,7.71,2.82,10.91,4.54,5.71,7.97,7.54c3.43,1.83,7.44,2.75,12.03,2.75,3.61,0,6.82-.58,9.63-1.74,2.81-1.16,5.14-2.82,7-4.99l-5.18-5.96c-1.44,1.55-3.09,2.68-4.95,3.4-1.86.72-3.94,1.08-6.27,1.08-2.68,0-5.05-.52-7.12-1.55s-3.66-2.5-4.8-4.41c-.71-1.2-1.18-2.52-1.44-3.95h32.38c.05-.46.09-.95.11-1.47.03-.51.04-.98.04-1.39,0-4.33-.9-8.1-2.71-11.3-1.8-3.2-4.28-5.67-7.43-7.43ZM124.58,207.64c1.01-1.83,2.4-3.26,4.18-4.29,1.78-1.03,3.85-1.55,6.23-1.55s4.37.52,6.15,1.55c1.78,1.03,3.18,2.45,4.22,4.25.73,1.28,1.17,2.7,1.36,4.25h-23.47c.22-1.55.65-2.96,1.34-4.22Z"/>
    <path class="cls-3" d="M194.97,196.7c-3.12-1.75-6.72-2.63-10.79-2.63-3.35,0-6.41.76-9.17,2.28-1.54.85-2.88,1.96-4.06,3.3v-21.2h-9.67v57.4h9.2v-5.53c1.24,1.53,2.66,2.81,4.33,3.75,2.73,1.55,5.85,2.32,9.36,2.32,4.07,0,7.67-.89,10.79-2.67,3.12-1.78,5.6-4.24,7.43-7.39,1.83-3.14,2.75-6.86,2.75-11.14s-.91-7.99-2.75-11.14c-1.83-3.14-4.31-5.6-7.43-7.35ZM193.7,222.07c-1.08,1.96-2.54,3.46-4.37,4.49-1.83,1.03-3.91,1.55-6.23,1.55s-4.41-.52-6.27-1.55c-1.86-1.03-3.33-2.53-4.41-4.49-1.08-1.96-1.63-4.25-1.63-6.88s.54-4.99,1.63-6.92c1.08-1.93,2.55-3.42,4.41-4.45,1.86-1.03,3.95-1.55,6.27-1.55s4.4.52,6.23,1.55c1.83,1.03,3.29,2.51,4.37,4.45,1.08,1.93,1.62,4.24,1.62,6.92s-.54,4.92-1.62,6.88Z"/>
    <path class="cls-3" d="M219.69,200.58v-6.05h-9.2v41.31h9.67v-20.03c0-4.23,1.08-7.41,3.25-9.55s5.08-3.21,8.74-3.21c.36,0,.72.01,1.08.04.36.03.75.09,1.16.19v-9.2c-3.97,0-7.28.72-9.94,2.17-1.98,1.08-3.57,2.53-4.76,4.35Z"/>
    <path class="cls-3" d="M269.42,215.42c0,2.73-.48,5.03-1.43,6.88-.96,1.86-2.27,3.25-3.94,4.18-1.68.93-3.65,1.39-5.92,1.39-3.09,0-5.48-.91-7.16-2.75-1.68-1.83-2.51-4.6-2.51-8.32v-22.28h-9.67v23.59c0,4.13.75,7.54,2.24,10.25,1.5,2.71,3.58,4.72,6.27,6.04,2.68,1.31,5.77,1.97,9.28,1.97,3.2,0,6.14-.71,8.82-2.13,1.79-.95,3.27-2.2,4.49-3.72v5.3h9.2v-41.31h-9.67v20.89Z"/>
    <path class="cls-3" d="M354.82,201.92c-1.44-2.66-3.44-4.63-5.99-5.92-2.55-1.29-5.48-1.93-8.78-1.93-4.07,0-7.66.93-10.75,2.79-1.92,1.15-3.46,2.57-4.7,4.2-.99-1.66-2.25-3.06-3.84-4.12-2.86-1.91-6.23-2.86-10.09-2.86-3.4,0-6.43.7-9.09,2.09-1.77.93-3.24,2.17-4.45,3.68v-5.3h-9.2v41.31h9.67v-20.96c0-2.79.45-5.08,1.35-6.88.9-1.8,2.17-3.17,3.79-4.1s3.49-1.39,5.61-1.39c2.99,0,5.29.9,6.88,2.71s2.4,4.54,2.4,8.2v22.43h9.67v-20.96c0-2.79.45-5.08,1.35-6.88.9-1.8,2.17-3.17,3.79-4.1s3.49-1.39,5.61-1.39c2.99,0,5.28.9,6.88,2.71,1.6,1.8,2.4,4.54,2.4,8.2v22.43h9.67v-23.67c0-4.18-.72-7.59-2.17-10.25Z"/>
  </g>
  <g>
    <path class="cls-1" d="M65,266.09c-.7-.89-1.54-1.59-2.54-2.08-1.32-.65-2.78-.97-4.38-.97-1.81,0-3.43.38-4.86,1.13-1.43.75-2.56,1.81-3.39,3.16-.84,1.35-1.25,2.94-1.25,4.75s.42,3.37,1.25,4.73c.83,1.37,1.96,2.43,3.39,3.2,1.42.77,3.04,1.15,4.86,1.15,1.6,0,3.06-.34,4.38-1.01.92-.47,1.7-1.11,2.37-1.91v1.5c0,2.12-.52,3.69-1.55,4.73s-2.66,1.55-4.87,1.55c-1.39,0-2.72-.22-3.99-.65-1.27-.44-2.34-1.03-3.21-1.78l-1.62,2.61c1.01.9,2.33,1.58,3.94,2.07s3.28.72,5,.72c3.18,0,5.59-.78,7.24-2.33,1.65-1.56,2.47-3.98,2.47-7.27v-16.17h-3.21v2.87ZM64.06,275.26c-.55.92-1.31,1.64-2.28,2.15-.97.52-2.07.78-3.32.78s-2.36-.26-3.34-.78c-.98-.52-1.74-1.23-2.3-2.15s-.83-1.98-.83-3.18.28-2.26.83-3.18,1.32-1.63,2.3-2.14,2.09-.76,3.34-.76,2.35.25,3.32.76c.96.51,1.72,1.22,2.28,2.14.55.92.83,1.98.83,3.18s-.28,2.26-.83,3.18Z"/>
    <rect class="cls-1" x="73.26" y="255.73" width="3.39" height="26.2"/>
    <path class="cls-1" d="M94.71,264.26c-1.47-.81-3.14-1.22-5-1.22s-3.56.41-5.01,1.22c-1.46.81-2.61,1.94-3.46,3.37s-1.27,3.08-1.27,4.94.42,3.48,1.27,4.93c.85,1.45,2,2.58,3.46,3.41,1.46.82,3.13,1.24,5.01,1.24s3.53-.41,5-1.24c1.47-.82,2.62-1.95,3.46-3.39.84-1.44,1.25-3.08,1.25-4.94s-.42-3.54-1.25-4.96c-.84-1.42-1.99-2.54-3.46-3.36ZM95.19,276.05c-.54,1-1.29,1.77-2.24,2.31-.95.54-2.03.81-3.23.81s-2.27-.27-3.21-.81c-.94-.54-1.69-1.31-2.26-2.31-.56-1-.85-2.16-.85-3.48s.28-2.5.85-3.48c.56-.98,1.32-1.74,2.26-2.28.94-.54,2.01-.81,3.21-.81s2.28.27,3.23.81c.95.54,1.7,1.3,2.24,2.28.54.98.81,2.14.81,3.48s-.27,2.48-.81,3.48Z"/>
    <path class="cls-1" d="M117.51,264.24c-1.41-.8-3.04-1.2-4.87-1.2-1.55,0-2.97.35-4.25,1.06-.89.49-1.64,1.16-2.28,1.98v-10.35h-3.39v26.2h3.25v-2.97c.64.88,1.42,1.58,2.35,2.1,1.28.72,2.72,1.08,4.33,1.08,1.84,0,3.46-.4,4.87-1.2s2.53-1.92,3.36-3.36c.82-1.44,1.24-3.11,1.24-5.02s-.41-3.57-1.24-5c-.82-1.43-1.94-2.54-3.36-3.34ZM117.84,276.05c-.55,1-1.31,1.77-2.26,2.31s-2.03.81-3.23.81-2.24-.27-3.2-.81c-.95-.54-1.71-1.31-2.26-2.31-.55-1-.83-2.16-.83-3.48s.28-2.5.83-3.48c.55-.98,1.31-1.74,2.26-2.28.95-.54,2.02-.81,3.2-.81s2.28.27,3.23.81c.95.54,1.71,1.3,2.26,2.28.55.98.83,2.14.83,3.48s-.28,2.48-.83,3.48Z"/>
    <path class="cls-1" d="M132.02,263.04c-1.48,0-2.9.21-4.25.62-1.35.41-2.51,1.01-3.48,1.78l1.41,2.54c.73-.61,1.62-1.1,2.68-1.46,1.06-.37,2.14-.55,3.25-.55,1.67,0,2.92.39,3.76,1.18.83.79,1.25,1.9,1.25,3.34v.67h-5.37c-1.86,0-3.34.25-4.43.74-1.1.49-1.88,1.15-2.37,1.98s-.72,1.74-.72,2.75.28,2.01.85,2.84c.56.84,1.37,1.49,2.42,1.96s2.27.71,3.66.71c1.72,0,3.14-.32,4.27-.97.8-.46,1.41-1.03,1.87-1.72v2.48h3.21v-11.3c0-2.57-.69-4.47-2.08-5.72-1.39-1.25-3.37-1.87-5.93-1.87ZM134.58,278.69c-.95.56-2.07.85-3.34.85s-2.31-.28-3.04-.83c-.73-.55-1.1-1.29-1.1-2.21,0-.8.29-1.48.88-2.05.59-.56,1.73-.85,3.43-.85h5.23v2.61c-.42,1.08-1.11,1.91-2.07,2.47Z"/>
    <rect class="cls-1" x="144.91" y="255.73" width="3.39" height="26.2"/>
    <path class="cls-1" d="M172.54,272.58c-.69-.35-1.47-.63-2.31-.83s-1.69-.36-2.54-.49-1.62-.29-2.31-.48c-.69-.19-1.26-.45-1.7-.79s-.65-.83-.65-1.47c0-.75.36-1.37,1.09-1.85s1.84-.72,3.32-.72c.92,0,1.84.11,2.75.32s1.8.6,2.65,1.17l1.45-2.68c-.8-.54-1.83-.96-3.09-1.25-1.26-.29-2.5-.44-3.73-.44-1.6,0-2.98.23-4.15.69-1.16.46-2.07,1.11-2.7,1.96s-.95,1.84-.95,2.97.21,1.95.64,2.6c.42.65.99,1.15,1.69,1.52s1.48.65,2.33.85,1.69.36,2.54.49c.85.13,1.62.28,2.31.44s1.25.41,1.68.74c.42.33.64.79.64,1.38,0,.8-.35,1.42-1.04,1.87-.69.45-1.83.67-3.41.67-1.23,0-2.43-.19-3.6-.56-1.18-.38-2.17-.84-2.97-1.38l-1.41,2.69c.8.61,1.9,1.13,3.3,1.55,1.4.42,2.88.64,4.43.64,1.67,0,3.11-.23,4.31-.69,1.2-.46,2.13-1.1,2.79-1.92.66-.82.99-1.8.99-2.93,0-1.06-.22-1.91-.65-2.54s-1-1.13-1.69-1.48Z"/>
    <path class="cls-1" d="M190.73,264.26c-1.47-.81-3.14-1.22-5-1.22s-3.56.41-5.01,1.22c-1.46.81-2.61,1.94-3.46,3.37s-1.27,3.08-1.27,4.94.42,3.48,1.27,4.93c.85,1.45,2,2.58,3.46,3.41,1.46.82,3.13,1.24,5.01,1.24s3.53-.41,5-1.24c1.47-.82,2.62-1.95,3.46-3.39.84-1.44,1.25-3.08,1.25-4.94s-.42-3.54-1.25-4.96c-.84-1.42-1.99-2.54-3.46-3.36ZM191.21,276.05c-.54,1-1.29,1.77-2.24,2.31-.95.54-2.03.81-3.23.81s-2.27-.27-3.21-.81c-.94-.54-1.69-1.31-2.26-2.31-.56-1-.85-2.16-.85-3.48s.28-2.5.85-3.48c.56-.98,1.32-1.74,2.26-2.28.94-.54,2.01-.81,3.21-.81s2.28.27,3.23.81c.95.54,1.7,1.3,2.24,2.28.54.98.81,2.14.81,3.48s-.27,2.48-.81,3.48Z"/>
    <rect class="cls-1" x="198.73" y="255.73" width="3.39" height="26.2"/>
    <path class="cls-1" d="M221.22,272.89c0,1.32-.23,2.44-.71,3.37-.47.93-1.14,1.64-2.01,2.12-.87.48-1.9.72-3.07.72-1.6,0-2.84-.46-3.73-1.38-.88-.92-1.32-2.3-1.32-4.13v-10.38h-3.39v10.77c0,1.84.34,3.36,1.01,4.57.67,1.21,1.61,2.11,2.83,2.7,1.21.59,2.62.88,4.22.88s2.91-.34,4.13-1.02c.91-.51,1.65-1.17,2.23-2v2.81h3.21v-18.72h-3.39v9.68Z"/>
    <path class="cls-1" d="M236.48,279.29c-.94,0-1.67-.27-2.17-.81-.51-.54-.76-1.32-.76-2.33v-10.13h5.37v-2.79h-5.37v-4.1h-3.39v4.1h-3.18v2.79h3.18v10.28c0,1.88.52,3.33,1.55,4.34,1.04,1.01,2.49,1.52,4.38,1.52.78,0,1.52-.11,2.24-.32.72-.21,1.34-.54,1.85-.99l-1.06-2.44c-.71.59-1.59.88-2.65.88Z"/>
    <path class="cls-1" d="M244.57,255.2c-.66,0-1.21.21-1.64.64-.44.42-.65.95-.65,1.59s.22,1.13.65,1.55.98.64,1.64.64,1.24-.22,1.66-.65.64-.97.64-1.61-.22-1.12-.65-1.54-.98-.62-1.64-.62Z"/>
    <rect class="cls-1" x="242.87" y="263.22" width="3.39" height="18.72"/>
    <path class="cls-1" d="M264.32,264.26c-1.47-.81-3.14-1.22-5-1.22s-3.56.41-5.01,1.22c-1.46.81-2.61,1.94-3.46,3.37s-1.27,3.08-1.27,4.94.42,3.48,1.27,4.93c.85,1.45,2,2.58,3.46,3.41,1.46.82,3.13,1.24,5.01,1.24s3.53-.41,5-1.24c1.47-.82,2.62-1.95,3.46-3.39.84-1.44,1.25-3.08,1.25-4.94s-.42-3.54-1.25-4.96c-.84-1.42-1.99-2.54-3.46-3.36ZM264.8,276.05c-.54,1-1.29,1.77-2.24,2.31-.95.54-2.03.81-3.23.81s-2.27-.27-3.21-.81c-.94-.54-1.69-1.31-2.26-2.31-.56-1-.85-2.16-.85-3.48s.28-2.5.85-3.48c.56-.98,1.32-1.74,2.26-2.28.94-.54,2.01-.81,3.21-.81s2.28.27,3.23.81c.95.54,1.7,1.3,2.24,2.28.54.98.81,2.14.81,3.48s-.27,2.48-.81,3.48Z"/>
    <path class="cls-1" d="M286.36,263.92c-1.17-.59-2.51-.88-4.04-.88-1.69,0-3.18.34-4.45,1.02-.95.51-1.71,1.17-2.3,1.98v-2.83h-3.25v18.72h3.39v-9.64c0-1.36.24-2.51.72-3.42.48-.92,1.17-1.61,2.07-2.08s1.94-.71,3.14-.71c1.6,0,2.84.46,3.73,1.38.88.92,1.32,2.28,1.32,4.1v10.38h3.39v-10.77c0-1.84-.33-3.36-.99-4.56s-1.57-2.1-2.74-2.68Z"/>
    <path class="cls-1" d="M307.76,274.06c-.44-.64-1-1.13-1.69-1.48s-1.47-.63-2.31-.83-1.69-.36-2.54-.49-1.62-.29-2.31-.48c-.69-.19-1.26-.45-1.7-.79s-.65-.83-.65-1.47c0-.75.36-1.37,1.09-1.85s1.84-.72,3.32-.72c.92,0,1.84.11,2.75.32s1.8.6,2.65,1.17l1.45-2.68c-.8-.54-1.83-.96-3.09-1.25-1.26-.29-2.5-.44-3.73-.44-1.6,0-2.98.23-4.15.69-1.16.46-2.07,1.11-2.7,1.96s-.95,1.84-.95,2.97.21,1.95.64,2.6c.42.65.99,1.15,1.69,1.52s1.48.65,2.33.85,1.69.36,2.54.49c.85.13,1.62.28,2.31.44s1.25.41,1.68.74c.42.33.64.79.64,1.38,0,.8-.35,1.42-1.04,1.87-.69.45-1.83.67-3.41.67-1.23,0-2.43-.19-3.6-.56-1.18-.38-2.17-.84-2.97-1.38l-1.41,2.69c.8.61,1.9,1.13,3.3,1.55,1.4.42,2.88.64,4.43.64,1.67,0,3.11-.23,4.31-.69,1.2-.46,2.13-1.1,2.79-1.92.66-.82.99-1.8.99-2.93,0-1.06-.22-1.91-.65-2.54Z"/>
  </g>
  <g>
    <path class="cls-2" d="M160.24.01h38.25l71.28,71.28-72.44,72.44h-37.09l71.86-71.47S160.24-1.15,160.24.01Z"/>
    <path class="cls-2" d="M87.22.01h38.25l71.28,71.28-72.44,72.44h-37.09l71.86-71.47S87.22-1.15,87.22.01Z"/>
  </g>
</svg>